<svg width="12" height="12" viewBox="0 0 12 12" fill="none" xmlns="http://www.w3.org/2000/svg">
<path fill-rule="evenodd" clip-rule="evenodd" d="M6.5 5.94999V9.5H5.5V5.94999C4.35888 5.71836 3.5 4.70948 3.5 3.5C3.5 2.11929 4.61929 1 6 1C7.38071 1 8.5 2.11929 8.5 3.5C8.5 4.70948 7.64112 5.71836 6.5 5.94999ZM4.5 7.07865V8.09218C3.03359 8.27524 2 8.69337 2 9C2 9.40348 3.78957 10 6 10C8.21043 10 10 9.40348 10 9C10 8.69337 8.96641 8.27524 7.5 8.09218V7.07865C9.52794 7.30086 11 7.98391 11 9C11 10.2534 8.76013 11 6 11C3.23987 11 1 10.2534 1 9C1 7.98391 2.47206 7.30086 4.5 7.07865ZM6 5C6.82843 5 7.5 4.32843 7.5 3.5C7.5 2.67157 6.82843 2 6 2C5.17157 2 4.5 2.67157 4.5 3.5C4.5 4.32843 5.17157 5 6 5Z"/>
</svg>
