<svg width="155" height="134" viewBox="0 0 155 134" fill="none" xmlns="http://www.w3.org/2000/svg">
<g clip-path="url(#clip0)">
<path fill-rule="evenodd" clip-rule="evenodd" d="M0 111.755C1.48752 112.106 3.43483 113.536 4.84121 114.345L28.3441 128.405C30.0209 129.403 31.4003 130.186 32.996 131.184C39.0002 135.043 36.6472 134.611 47.8983 131.049C51.1438 130.024 54.4704 128.863 57.8241 127.757C60.9344 126.732 64.3422 125.598 67.4254 124.573C80.9484 120.066 74.241 120.12 96.8784 127.649C100.367 128.809 103.288 129.808 106.804 130.941C108.67 131.562 110.023 131.859 111.862 132.479C117.596 134.395 116.46 134.827 121.761 131.319L145.263 117.233C146.994 116.207 148.211 115.479 149.915 114.453C151.349 113.617 153.512 112.052 155 111.701C155 109.65 154.513 108.759 153.999 106.924L139.881 56.2733C138.935 52.9541 138.096 49.9318 137.312 46.8825C136.474 43.6173 135.527 40.7838 134.743 37.4917C132.931 37.9234 130.74 39.5425 129.09 40.514C127.143 41.6744 125.574 42.6188 123.654 43.7522L115.432 48.7445C114.81 49.1223 113.025 50.0667 112.592 50.4445C110.807 51.9557 111.132 54.6272 112.917 55.9495C115.08 57.5686 117.028 56.2193 118.894 55.086C120.814 53.9256 128.711 48.9603 130.172 48.6095C132.119 56.894 136.095 69.3881 138.448 78.2932C140.855 87.4951 144.723 99.4765 146.724 107.977C145.318 108.355 143.505 109.731 142.261 110.54L120.246 123.736C118.677 124.249 119.137 123.277 118.677 119.068C117.055 104.469 114.945 89.3301 113.62 75.055C113.187 70.4135 113.268 65.1244 109.103 65.1244C103.721 65.1244 106.02 72.7343 106.561 77.5646C107.183 83.1235 107.751 87.9539 108.373 93.5128L112.024 124.924L81.4893 114.858C81.4622 112.807 81.7597 102.877 81.0295 101.419C80.0558 99.4766 74.3221 96.4002 74.4032 105.143C74.4303 108.301 74.4032 111.485 74.4032 114.642L59.1764 119.634C56.7693 120.444 54.2811 121.254 51.7388 122.117C49.9267 122.711 45.7346 124.384 43.8414 124.546C43.8414 121.928 44.1659 120.228 44.4905 117.772C44.8421 115.209 44.9773 113.266 45.3289 110.756L49.3858 75.6487C49.7103 73.193 51.7929 65.1784 46.7353 65.1784C42.1105 65.1784 42.3539 71.8168 41.8129 77.5916C41.1368 84.6077 36.4849 120.606 36.4038 124.573C34.6458 124.168 24.5847 117.692 22.3399 116.342C19.9869 114.912 17.7151 113.59 15.3621 112.187L8.30309 108.085C10.3045 99.5575 14.145 87.6031 16.5791 78.4011C18.9321 69.496 22.9079 57.0019 24.8552 48.7175C28.885 49.662 35.8629 56.5432 40.1361 56.5432C43.625 56.5432 44.815 52.7383 42.1105 50.4715L27.7761 41.7013C26.0722 40.6759 22.2047 38.0314 20.3115 37.5996C19.5812 40.7569 18.6346 43.6443 17.8232 46.6666L2.38004 102.202C1.73094 104.388 0.0540918 109.92 0.0540918 111.836L0 111.755Z" fill="#FF0000"/>
<path fill-rule="evenodd" clip-rule="evenodd" d="M77.2966 7.02542C84.7883 7.02542 91.7121 10.2097 95.6067 13.9336C109.86 27.5881 103.315 48.5016 93.8487 62.6958L86.357 72.9502C85.0317 74.6232 83.7065 76.3503 82.1649 77.8345C80.4339 79.5345 79.7307 81.1266 77.7293 82.4759C77.0532 81.4775 68.3174 72.3295 63.4221 64.9895C54.4158 51.497 46.3561 33.282 56.5524 18.0623C58.5538 15.094 61.5289 12.3955 64.7744 10.5875C68.3174 8.61754 73.0234 6.99843 77.2966 6.99843V7.02542ZM44.6522 31.366C44.6522 41.3775 44.9768 44.8856 49.1959 54.4653C52.4144 61.8053 56.8499 68.9833 61.8805 75.1899C62.8 76.2963 63.3409 77.0249 64.2605 78.1853L72.239 87.1174C73.9159 88.7904 76.5123 90.9762 77.7023 92.7842C79.1628 91.8128 82.0296 88.7904 83.3819 87.3332C88.142 82.1791 95.0658 74.0835 98.7711 68.4706C108.67 53.5208 117.189 32.0946 105.722 14.9321C100.15 6.62064 90.1705 0.00927734 80.1905 0.00927734C69.1828 0.00927734 61.4748 2.38397 54.2535 9.58901C49.6557 14.1765 44.6522 22.353 44.6522 31.339V31.366Z" fill="#FF0000"/>
<path fill-rule="evenodd" clip-rule="evenodd" d="M77.7025 22.6769H79.758C84.3017 22.6769 88.8454 27.2104 88.8454 31.7439V33.7948C88.8454 44.9667 69.0208 46.6127 68.4528 33.2281C68.2094 27.2914 72.7531 22.6769 77.6755 22.6769H77.7025ZM61.1775 31.7439C61.1775 37.2489 62.3134 40.9189 66.0187 44.6428C77.1616 55.8147 96.3101 48.5017 96.3101 32.1487C96.3101 23.7023 88.2234 15.229 78.9466 15.229C69.8592 15.229 61.1775 22.8928 61.1775 31.7169V31.7439Z" fill="#FF0000"/>
</g>
<defs>
<clipPath id="clip0">
<rect width="155" height="134" fill="white"/>
</clipPath>
</defs>
</svg>
