<svg width="400" height="60" viewBox="0 0 400 60" fill="none" xmlns="http://www.w3.org/2000/svg">
<rect width="400" height="60" rx="30" fill="#339966"/>
<path d="M57.6 23.16C59.6 23.16 61.4133 23.6267 63.04 24.56C64.6933 25.4667 65.9867 26.76 66.92 28.44C67.8533 30.0933 68.32 32.0267 68.32 34.24C68.32 36.4533 67.8533 38.4 66.92 40.08C65.9867 41.7333 64.6933 43.0267 63.04 43.96C61.4133 44.8667 59.6 45.32 57.6 45.32C54.8533 45.32 52.6933 44.4533 51.12 42.72V52.76H44.88V23.48H50.84V25.96C52.3867 24.0933 54.64 23.16 57.6 23.16ZM56.52 40.2C58.12 40.2 59.4267 39.6667 60.44 38.6C61.48 37.5067 62 36.0533 62 34.24C62 32.4267 61.48 30.9867 60.44 29.92C59.4267 28.8267 58.12 28.28 56.52 28.28C54.92 28.28 53.6 28.8267 52.56 29.92C51.5467 30.9867 51.04 32.4267 51.04 34.24C51.04 36.0533 51.5467 37.5067 52.56 38.6C53.6 39.6667 54.92 40.2 56.52 40.2ZM72.4972 23.48H78.7372V45H72.4972V23.48ZM75.6172 20.48C74.4705 20.48 73.5372 20.1467 72.8172 19.48C72.0972 18.8133 71.7372 17.9867 71.7372 17C71.7372 16.0133 72.0972 15.1867 72.8172 14.52C73.5372 13.8533 74.4705 13.52 75.6172 13.52C76.7639 13.52 77.6972 13.84 78.4172 14.48C79.1372 15.12 79.4972 15.92 79.4972 16.88C79.4972 17.92 79.1372 18.7867 78.4172 19.48C77.6972 20.1467 76.7639 20.48 75.6172 20.48ZM84.5284 15.32H90.7684V45H84.5284V15.32ZM96.5597 23.48H102.8V45H96.5597V23.48ZM99.6797 20.48C98.533 20.48 97.5997 20.1467 96.8797 19.48C96.1597 18.8133 95.7997 17.9867 95.7997 17C95.7997 16.0133 96.1597 15.1867 96.8797 14.52C97.5997 13.8533 98.533 13.52 99.6797 13.52C100.826 13.52 101.76 13.84 102.48 14.48C103.2 15.12 103.56 15.92 103.56 16.88C103.56 17.92 103.2 18.7867 102.48 19.48C101.76 20.1467 100.826 20.48 99.6797 20.48ZM121.671 23.16C124.338 23.16 126.484 23.96 128.111 25.56C129.764 27.16 130.591 29.5333 130.591 32.68V45H124.351V33.64C124.351 31.9333 123.978 30.6667 123.231 29.84C122.484 28.9867 121.404 28.56 119.991 28.56C118.418 28.56 117.164 29.0533 116.231 30.04C115.298 31 114.831 32.44 114.831 34.36V45H108.591V15.32H114.831V25.72C115.658 24.8933 116.658 24.2667 117.831 23.84C119.004 23.3867 120.284 23.16 121.671 23.16ZM154.815 45.32C153.029 45.32 151.282 45.1067 149.575 44.68C147.869 44.2267 146.509 43.6667 145.495 43L147.575 38.52C148.535 39.1333 149.695 39.64 151.055 40.04C152.415 40.4133 153.749 40.6 155.055 40.6C157.695 40.6 159.015 39.9467 159.015 38.64C159.015 38.0267 158.655 37.5867 157.935 37.32C157.215 37.0533 156.109 36.8267 154.615 36.64C152.855 36.3733 151.402 36.0667 150.255 35.72C149.109 35.3733 148.109 34.76 147.255 33.88C146.429 33 146.015 31.7467 146.015 30.12C146.015 28.76 146.402 27.56 147.175 26.52C147.975 25.4533 149.122 24.6267 150.615 24.04C152.135 23.4533 153.922 23.16 155.975 23.16C157.495 23.16 159.002 23.3333 160.495 23.68C162.015 24 163.269 24.4533 164.255 25.04L162.175 29.48C160.282 28.4133 158.215 27.88 155.975 27.88C154.642 27.88 153.642 28.0667 152.975 28.44C152.309 28.8133 151.975 29.2933 151.975 29.88C151.975 30.5467 152.335 31.0133 153.055 31.28C153.775 31.5467 154.922 31.8 156.495 32.04C158.255 32.3333 159.695 32.6533 160.815 33C161.935 33.32 162.909 33.92 163.735 34.8C164.562 35.68 164.975 36.9067 164.975 38.48C164.975 39.8133 164.575 41 163.775 42.04C162.975 43.08 161.802 43.8933 160.255 44.48C158.735 45.04 156.922 45.32 154.815 45.32ZM177.505 23.16C180.839 23.16 183.399 23.96 185.185 25.56C186.972 27.1333 187.865 29.52 187.865 32.72V45H182.025V42.32C180.852 44.32 178.665 45.32 175.465 45.32C173.812 45.32 172.372 45.04 171.145 44.48C169.945 43.92 169.025 43.1467 168.385 42.16C167.745 41.1733 167.425 40.0533 167.425 38.8C167.425 36.8 168.172 35.2267 169.665 34.08C171.185 32.9333 173.519 32.36 176.665 32.36H181.625C181.625 31 181.212 29.96 180.385 29.24C179.559 28.4933 178.319 28.12 176.665 28.12C175.519 28.12 174.385 28.3067 173.265 28.68C172.172 29.0267 171.239 29.5067 170.465 30.12L168.225 25.76C169.399 24.9333 170.799 24.2933 172.425 23.84C174.079 23.3867 175.772 23.16 177.505 23.16ZM177.025 41.12C178.092 41.12 179.039 40.88 179.865 40.4C180.692 39.8933 181.279 39.16 181.625 38.2V36H177.345C174.785 36 173.505 36.84 173.505 38.52C173.505 39.32 173.812 39.96 174.425 40.44C175.065 40.8933 175.932 41.12 177.025 41.12ZM193.513 15.32H199.753V45H193.513V15.32ZM214.224 23.16C217.557 23.16 220.117 23.96 221.904 25.56C223.691 27.1333 224.584 29.52 224.584 32.72V45H218.744V42.32C217.571 44.32 215.384 45.32 212.184 45.32C210.531 45.32 209.091 45.04 207.864 44.48C206.664 43.92 205.744 43.1467 205.104 42.16C204.464 41.1733 204.144 40.0533 204.144 38.8C204.144 36.8 204.891 35.2267 206.384 34.08C207.904 32.9333 210.237 32.36 213.384 32.36H218.344C218.344 31 217.931 29.96 217.104 29.24C216.277 28.4933 215.037 28.12 213.384 28.12C212.237 28.12 211.104 28.3067 209.984 28.68C208.891 29.0267 207.957 29.5067 207.184 30.12L204.944 25.76C206.117 24.9333 207.517 24.2933 209.144 23.84C210.797 23.3867 212.491 23.16 214.224 23.16ZM213.744 41.12C214.811 41.12 215.757 40.88 216.584 40.4C217.411 39.8933 217.997 39.16 218.344 38.2V36H214.064C211.504 36 210.224 36.84 210.224 38.52C210.224 39.32 210.531 39.96 211.144 40.44C211.784 40.8933 212.651 41.12 213.744 41.12ZM243.312 23.16C245.978 23.16 248.125 23.96 249.752 25.56C251.405 27.16 252.232 29.5333 252.232 32.68V45H245.992V33.64C245.992 31.9333 245.618 30.6667 244.872 29.84C244.125 28.9867 243.045 28.56 241.632 28.56C240.058 28.56 238.805 29.0533 237.872 30.04C236.938 31 236.472 32.44 236.472 34.36V45H230.232V15.32H236.472V25.72C237.298 24.8933 238.298 24.2667 239.472 23.84C240.645 23.3867 241.925 23.16 243.312 23.16ZM276.456 45.32C274.669 45.32 272.923 45.1067 271.216 44.68C269.509 44.2267 268.149 43.6667 267.136 43L269.216 38.52C270.176 39.1333 271.336 39.64 272.696 40.04C274.056 40.4133 275.389 40.6 276.696 40.6C279.336 40.6 280.656 39.9467 280.656 38.64C280.656 38.0267 280.296 37.5867 279.576 37.32C278.856 37.0533 277.749 36.8267 276.256 36.64C274.496 36.3733 273.043 36.0667 271.896 35.72C270.749 35.3733 269.749 34.76 268.896 33.88C268.069 33 267.656 31.7467 267.656 30.12C267.656 28.76 268.043 27.56 268.816 26.52C269.616 25.4533 270.763 24.6267 272.256 24.04C273.776 23.4533 275.563 23.16 277.616 23.16C279.136 23.16 280.643 23.3333 282.136 23.68C283.656 24 284.909 24.4533 285.896 25.04L283.816 29.48C281.923 28.4133 279.856 27.88 277.616 27.88C276.283 27.88 275.283 28.0667 274.616 28.44C273.949 28.8133 273.616 29.2933 273.616 29.88C273.616 30.5467 273.976 31.0133 274.696 31.28C275.416 31.5467 276.563 31.8 278.136 32.04C279.896 32.3333 281.336 32.6533 282.456 33C283.576 33.32 284.549 33.92 285.376 34.8C286.203 35.68 286.616 36.9067 286.616 38.48C286.616 39.8133 286.216 41 285.416 42.04C284.616 43.08 283.443 43.8933 281.896 44.48C280.376 45.04 278.563 45.32 276.456 45.32ZM299.146 23.16C302.479 23.16 305.039 23.96 306.826 25.56C308.613 27.1333 309.506 29.52 309.506 32.72V45H303.666V42.32C302.493 44.32 300.306 45.32 297.106 45.32C295.453 45.32 294.013 45.04 292.786 44.48C291.586 43.92 290.666 43.1467 290.026 42.16C289.386 41.1733 289.066 40.0533 289.066 38.8C289.066 36.8 289.813 35.2267 291.306 34.08C292.826 32.9333 295.159 32.36 298.306 32.36H303.266C303.266 31 302.853 29.96 302.026 29.24C301.199 28.4933 299.959 28.12 298.306 28.12C297.159 28.12 296.026 28.3067 294.906 28.68C293.813 29.0267 292.879 29.5067 292.106 30.12L289.866 25.76C291.039 24.9333 292.439 24.2933 294.066 23.84C295.719 23.3867 297.413 23.16 299.146 23.16ZM298.666 41.12C299.733 41.12 300.679 40.88 301.506 40.4C302.333 39.8933 302.919 39.16 303.266 38.2V36H298.986C296.426 36 295.146 36.84 295.146 38.52C295.146 39.32 295.453 39.96 296.066 40.44C296.706 40.8933 297.573 41.12 298.666 41.12ZM329.033 43.96C328.42 44.4133 327.66 44.76 326.753 45C325.873 45.2133 324.94 45.32 323.953 45.32C321.393 45.32 319.407 44.6667 317.993 43.36C316.607 42.0533 315.913 40.1333 315.913 37.6V28.76H312.593V23.96H315.913V18.72H322.153V23.96H327.513V28.76H322.153V37.52C322.153 38.4267 322.38 39.1333 322.833 39.64C323.313 40.12 323.98 40.36 324.833 40.36C325.82 40.36 326.66 40.0933 327.353 39.56L329.033 43.96ZM354.216 23.48V45H348.296V42.44C347.47 43.3733 346.483 44.0933 345.336 44.6C344.19 45.08 342.95 45.32 341.616 45.32C338.79 45.32 336.55 44.5067 334.896 42.88C333.243 41.2533 332.416 38.84 332.416 35.64V23.48H338.656V34.72C338.656 38.1867 340.11 39.92 343.016 39.92C344.51 39.92 345.71 39.44 346.616 38.48C347.523 37.4933 347.976 36.04 347.976 34.12V23.48H354.216Z" fill="white"/>
<rect x="20" y="25" width="10" height="10" rx="5" fill="white"/>
<rect x="370" y="25" width="10" height="10" rx="5" fill="white"/>
</svg>
